<?xml version="1.0" encoding="UTF-8"?>
<svg width="117px" height="45px" viewBox="0 0 117 45" version="1.1" xmlns="http://www.w3.org/2000/svg" xmlns:xlink="http://www.w3.org/1999/xlink">
    <!-- Generator: Sketch 59.1 (86144) - https://sketch.com -->
    <title>Combined Shape Copy 2</title>
    <desc>Created with Sketch.</desc>
    <g id="Page-1" stroke="none" stroke-width="1" fill="none" fill-rule="evenodd">
        <g id="Home" transform="translate(-320.000000, -53.000000)" fill="#FFFFFF" fill-rule="nonzero">
            <g id="Group-2" transform="translate(320.000000, 52.000000)">
                <path d="M107.877193,19 L103.315789,19 C103.189282,16.525 102.353024,15.025 100.807018,14.5 L117,14.5 L117,19 L112.438596,19 L112.438596,39.25 L107.877193,34.75 L107.877193,19 Z M86.7373684,34.7905047 L82.1052632,39.3602547 L82.1075391,39.3625 L82.1052632,39.3625 L82.1052632,14.5 L90.330614,14.5 C93.1370175,14.5 95.0778947,15.2245 96.310614,16.4665 C97.3859649,17.5015 97.9367544,18.89875 97.9367544,20.684125 C97.9367544,23.5045 96.4417544,25.341625 94.1599123,26.299 L98.54,32.6125 L92.6649123,32.6125 L88.9667544,27.127 L86.7373684,27.127 L86.7373684,34.7905047 Z M86.7373684,23.194 L90.0945614,23.194 C91.825614,23.194 92.8222807,22.366 92.8222807,21.046375 L92.8222807,20.994625 C92.8222807,19.5715 91.7731579,18.847 90.0683333,18.847 L86.7373684,18.847 L86.7373684,23.194 Z M68.4210526,32.5 C63.3826654,32.5 59.2982456,28.4705627 59.2982456,23.5 C59.2982456,18.5294373 63.3826654,14.5 68.4210526,14.5 C73.4594398,14.5 77.5438596,18.5294373 77.5438596,23.5 C77.5438596,28.4705627 73.4594398,32.5 68.4210526,32.5 Z M68.4210526,28 C70.9402462,28 72.9824561,25.9852814 72.9824561,23.5 C72.9824561,21.0147186 70.9402462,19 68.4210526,19 C65.901859,19 63.8596491,21.0147186 63.8596491,23.5 C63.8596491,25.9852814 65.901859,28 68.4210526,28 Z M45.5014249,21.25 L50.1754386,21.25 L50.1754386,14.5 L54.7368421,14.5 L54.7368421,32.5 L50.1754386,32.5 L50.1754386,25.75 L45.5014249,25.75 C45.193504,28.8096018 44.2643164,31.688901 42.8400761,34.2633828 L39.4401537,30.9092286 C40.4759986,28.6495795 41.0526316,26.1412231 41.0526316,23.5 C41.0526316,20.8587769 40.4759986,18.3504205 39.4401537,16.0907714 L42.8400761,12.7366172 C44.2643164,15.311099 45.193504,18.1903982 45.5014249,21.25 L45.5014249,21.25 Z M22.8070175,32.5 C17.7686304,32.5 13.6842105,28.4705627 13.6842105,23.5 C13.6842105,18.5294373 17.7686304,14.5 22.8070175,14.5 C27.8454047,14.5 31.9298246,18.5294373 31.9298246,23.5 C31.9298246,28.4705627 27.8454047,32.5 22.8070175,32.5 Z M22.8070175,28 C25.3262111,28 27.3684211,25.9852814 27.3684211,23.5 C27.3684211,21.0147186 25.3262111,19 22.8070175,19 C20.2878239,19 18.245614,21.0147186 18.245614,23.5 C18.245614,25.9852814 20.2878239,28 22.8070175,28 Z M35.708615,36.2279221 L38.9340143,39.4099026 C34.8067559,43.4816017 29.1050015,46 22.8070175,46 C10.2110496,46 0,35.9264069 0,23.5 C0,11.0735931 10.2110496,1 22.8070175,1 C29.1050015,1 34.8067559,3.51839828 38.9340143,7.59009742 L35.708615,10.7720779 C32.4068082,7.51471863 27.8454047,5.5 22.8070175,5.5 C12.7302432,5.5 4.56140351,13.5588745 4.56140351,23.5 C4.56140351,33.4411255 12.7302432,41.5 22.8070175,41.5 C27.8454047,41.5 32.4068082,39.4852814 35.708615,36.2279221 L35.708615,36.2279221 Z" id="Combined-Shape-Copy-2"></path>
            </g>
        </g>
    </g>
</svg>